<?xml version="1.0" encoding="UTF-8" standalone="no"?>
<!-- Created with Inkscape (http://www.inkscape.org/) -->

<svg
   xmlns:dc="http://purl.org/dc/elements/1.1/"
   xmlns:cc="http://creativecommons.org/ns#"
   xmlns:rdf="http://www.w3.org/1999/02/22-rdf-syntax-ns#"
   xmlns:svg="http://www.w3.org/2000/svg"
   xmlns="http://www.w3.org/2000/svg"
   xmlns:sodipodi="http://sodipodi.sourceforge.net/DTD/sodipodi-0.dtd"
   xmlns:inkscape="http://www.inkscape.org/namespaces/inkscape"
   width="210mm"
   height="297mm"
   viewBox="0 0 210 297"
   version="1.1"
   id="svg1461"
   sodipodi:docname="kradnoel_0.svg"
   inkscape:version="0.92.3 (2405546, 2018-03-11)"
   inkscape:export-filename="/home/kradnoel/Documents/djamal/PROJECTS/www.kradnoel.com/kradnoel_black.png"
   inkscape:export-xdpi="96"
   inkscape:export-ydpi="96">
  <defs
     id="defs1455" />
  <sodipodi:namedview
     id="base"
     pagecolor="#ffffff"
     bordercolor="#666666"
     borderopacity="1.0"
     inkscape:pageopacity="0.0"
     inkscape:pageshadow="2"
     inkscape:zoom="1.4142136"
     inkscape:cx="331.72503"
     inkscape:cy="570.18783"
     inkscape:document-units="mm"
     inkscape:current-layer="layer1"
     showgrid="false"
     showguides="true"
     inkscape:window-width="1024"
     inkscape:window-height="712"
     inkscape:window-x="0"
     inkscape:window-y="0"
     inkscape:window-maximized="1"
     inkscape:pagecheckerboard="true" />
  <metadata
     id="metadata1458">
    <rdf:RDF>
      <cc:Work
         rdf:about="">
        <dc:format>image/svg+xml</dc:format>
        <dc:type
           rdf:resource="http://purl.org/dc/dcmitype/StillImage" />
        <dc:title />
      </cc:Work>
    </rdf:RDF>
  </metadata>
  <g
     inkscape:label="Layer 1"
     inkscape:groupmode="layer"
     id="layer1">
    <path
       style="opacity:1;fill:#ffffff;fill-opacity:0.96078431;stroke:none;stroke-width:0.3785519;stroke-opacity:1"
       d="m 118.17356,151.0843 v 43.52301 c 2.45741,0.16623 4.93017,0.25686 7.40643,0.27146 36.27234,-8e-5 65.67675,-15.96514 65.67659,-35.65894 -0.0254,-2.45204 -0.51651,-4.89613 -1.46562,-7.29345 v 0 -1.04281 z"
       id="path1463-7"
       inkscape:connector-curvature="0"
       inkscape:export-xdpi="96"
       inkscape:export-ydpi="96"
       sodipodi:nodetypes="cccccccc" />
    <path
       id="path2025-5"
       d="m 118.17478,151.40447 v -43.523 c 2.45741,-0.16623 4.93017,-0.25687 7.40644,-0.27147 36.27233,9e-5 65.67673,15.96513 65.67658,35.65893 -0.0254,2.45204 -0.51651,4.89613 -1.46562,7.29345 h -0.15439 c 0.0875,0.28016 0.078,0.56914 0.15317,0.85036 z"
       style="opacity:1;fill:#ffffff;fill-opacity:1;stroke:none;stroke-width:0.37855187;stroke-opacity:1"
       inkscape:connector-curvature="0"
       inkscape:export-xdpi="96"
       inkscape:export-ydpi="96"
       sodipodi:nodetypes="cccccccc" />
    <path
       inkscape:connector-curvature="0"
       id="rect837-3"
       style="fill:#ffffff;fill-opacity:1;stroke-width:0.21798673"
       d="m 20.591511,107.45546 v 44.33269 H 98.375912 A 21.914165,20.150956 0 0 1 110.26307,137.73371 V 107.48129 H 80.540824 v 32.71945 h -30.22658 v -32.74528 z"
       inkscape:export-xdpi="96"
       inkscape:export-ydpi="96" />
    <path
       style="fill:#ffffff;fill-opacity:0.96078431;stroke-width:0.21859175"
       d="m 20.591532,151.25882 v 44.33231 h 29.888016 v -31.23394 h 30.394304 v 31.25977 H 110.76156 V 167.36911 A 22.035975,20.150956 0 0 1 98.477552,151.25882 Z"
       id="path1127-6"
       inkscape:connector-curvature="0"
       inkscape:export-xdpi="96"
       inkscape:export-ydpi="96" />
    <path
       style="fill:#1e1e1e;fill-opacity:0.96078431;stroke-width:0.21859175"
       d="m 15.299862,152.64586 v 44.33231 H 45.187877 V 165.74423 H 75.582181 V 197.004 H 105.46986 V 168.75615 A 22.035975,20.150956 0 0 1 93.185882,152.64586 Z"
       id="path1127"
       inkscape:connector-curvature="0"
       inkscape:export-xdpi="96"
       inkscape:export-ydpi="96" />
    <path
       id="rect837"
       transform="scale(0.26458333)"
       style="fill:#323232;fill-opacity:0.96078432;stroke-width:0.82388687"
       d="M 57.826172,410.13086 V 577.6875 H 351.81445 a 82.825189,76.161092 0 0 1 44.92774,-53.11914 V 410.22852 H 284.40625 V 533.89258 H 170.16406 V 410.13086 Z"
       inkscape:export-xdpi="96"
       inkscape:export-ydpi="96" />
    <path
       style="opacity:1;fill:#1e1e1e;fill-opacity:0.96078432;stroke:none;stroke-width:0.3785519;stroke-opacity:1"
       d="m 112.88308,152.46281 v 43.52301 c 2.45741,0.16623 4.93017,0.25686 7.40643,0.27146 36.27234,-8e-5 65.67675,-15.96514 65.67659,-35.65894 -0.0254,-2.45204 -0.51651,-4.89613 -1.46562,-7.29345 v 0 -1.04281 z"
       id="path1463"
       inkscape:connector-curvature="0"
       inkscape:export-xdpi="96"
       inkscape:export-ydpi="96"
       sodipodi:nodetypes="cccccccc" />
    <path
       id="path2025"
       d="m 112.8843,152.78298 v -43.523 c 2.45741,-0.16623 4.93017,-0.25687 7.40644,-0.27147 36.27233,9e-5 65.67673,15.96513 65.67658,35.65893 -0.0254,2.45204 -0.51651,4.89613 -1.46562,7.29345 h -0.15439 c 0.0875,0.28016 0.078,0.56914 0.15317,0.85036 z"
       style="opacity:1;fill:#323232;fill-opacity:0.96078432;stroke:none;stroke-width:0.37855187;stroke-opacity:1"
       inkscape:connector-curvature="0"
       inkscape:export-xdpi="96"
       inkscape:export-ydpi="96"
       sodipodi:nodetypes="cccccccc" />
  </g>
</svg>
